Blood And Chrome Season 1 - 1080p.wmv

Release Date  :  12-10-12 
Language      :  English   
Format                           : Windows Media
File size                        : 5.23 GiB
Duration                         : 1h 26mn
Overall bit rate mode            : Constant
Overall bit rate                 : 8 600 Kbps
Maximum Overall bit rate         : 24.4 Mbps
Encoded date                     : UTC 2012-12-08 15:39:21.231

Video
ID                               : 2
Format                           : VC-1
Format profile                   : MP
Codec ID                         : WMV3
Codec ID/Info                    : Windows Media Video 9
Codec ID/Hint                    : WMV3
Description of the codec         : Windows Media Video 9 - Professional
Duration                         : 1h 26mn
Bit rate mode                    : Constant
Bit rate                         : 24.0 Mbps
Width                            : 1 440 pixels
Height                           : 1 080 pixels
Display aspect ratio             : 4:3
Frame rate                       : 29.970 fps
Bit depth                        : 8 bits
Scan type                        : Progressive
Compression mode                 : Lossy
Bits/(Pixel*Frame)               : 0.515
Stream size                      : 14.6 GiB

Audio
ID                               : 1
Format                           : WMA
Format version                   : Version 2
Codec ID                         : 161
Codec ID/Info                    : Windows Media Audio
Description of the codec         : Windows Media Audio 9.2 - 192 kbps, 48 kHz, stereo (A/V) 1-pass CBR
Duration                         : 1h 26mn
Bit rate mode                    : Constant
Bit rate                         : 192 Kbps
Channel(s)                       : 2 channels
Sampling rate                    : 48.0 KHz
Bit depth                        : 16 bits
Stream size                      : 119 MiB (2%)
	
Air Date      :  December 7, 2012
Imdb          :  http://www.imdb.com/title/tt1704292/             
Plot Outline  :The adventures of young William Adama in the First Cylon War.